<?xml version="1.0" encoding="UTF-8"?>
<svg version="1.1" xmlns="http://www.w3.org/2000/svg" width="506" height="507">
<path d="M0 0 C166.98 0 333.96 0 506 0 C506 167.31 506 334.62 506 507 C339.02 507 172.04 507 0 507 C0 339.69 0 172.38 0 0 Z " fill="#FEEDF2" transform="translate(0,0)"/>
<path d="M0 0 C4.91799371 2.83898393 7.40757528 6.94113703 9.19921875 12.26953125 C10.32395917 20.98330966 8.5958016 27.4331673 5.1796875 35.39453125 C3.85018937 39.29297995 4.63102838 41.53574466 6.19921875 45.26953125 C6.70560173 51.34612699 6.70560173 51.34612699 5.13671875 54.20703125 C2.12037164 55.86115709 -0.43744733 55.57528888 -3.80078125 55.26953125 C-4.46078125 54.60953125 -5.12078125 53.94953125 -5.80078125 53.26953125 C-5.80078125 51.94953125 -5.80078125 50.62953125 -5.80078125 49.26953125 C-6.42984375 49.55828125 -7.05890625 49.84703125 -7.70703125 50.14453125 C-14.06917451 52.90401508 -18.96253412 54.65319662 -25.86328125 52.6796875 C-31.81301857 50.23443561 -34.93479982 45.90232519 -37.80078125 40.26953125 C-40.40616624 32.9299711 -39.88522331 22.03165434 -37.23828125 14.76953125 C-33.49948658 7.01837158 -28.2918628 1.63648519 -20.40625 -1.8828125 C-13.21150699 -4.22353099 -6.80903021 -3.02504796 0 0 Z " fill="#070405" transform="translate(134.80078125,219.73046875)"/>
<path d="M0 0 C4.32625381 2.20394062 7.64014223 4.73410327 10 9 C10.87324535 13.78779346 11.00512656 18.07248596 8.71875 22.45703125 C5.01816239 27.4909188 5.01816239 27.4909188 2 29 C3.27368756 32.12632402 5.02130596 34.11694993 7.42578125 36.44921875 C9.43335015 38.42689829 11.38553747 40.44343645 13.3125 42.5 C14.00988281 43.2321875 14.70726562 43.964375 15.42578125 44.71875 C17.28858875 47.41820305 17.45768903 48.78540766 17 52 C14.84888009 54.39932606 13.39546175 54.93436781 10.22265625 55.4609375 C5.68793119 54.8123344 3.82993928 52.18361197 1.0625 48.8125 C-2.93573376 44.06228055 -6.81001962 40.44916093 -12 37 C-12.03440186 37.58491211 -12.06880371 38.16982422 -12.10424805 38.77246094 C-12.27447628 41.43382754 -12.48058584 44.09124454 -12.6875 46.75 C-12.74099609 47.67039062 -12.79449219 48.59078125 -12.84960938 49.5390625 C-13.41720565 56.35021779 -13.41720565 56.35021779 -16.37890625 59.65234375 C-19.71697756 61.36863973 -21.45270096 61.04806563 -25 60 C-27.66419767 57.33580233 -26.24223396 49.57169109 -26.25 46 C-26.22190655 14.28449867 -26.22190655 14.28449867 -17 5 C-11.89053862 0.4618497 -6.79961577 -1.3624462 0 0 Z " fill="#060405" transform="translate(279,217)"/>
<path d="M0 0 C3 2 3 2 3.43237305 3.87939453 C3.45855713 4.62302246 3.48474121 5.36665039 3.51171875 6.1328125 C3.54716797 6.93847656 3.58261719 7.74414062 3.61914062 8.57421875 C3.64169922 9.41597656 3.66425781 10.25773438 3.6875 11.125 C3.73874023 12.39923828 3.73874023 12.39923828 3.79101562 13.69921875 C3.87359173 15.79901105 3.93846978 17.89948564 4 20 C7.25828297 16.37212842 10.14979532 12.88181016 12.5625 8.625 C14.67054528 5.15649099 14.67054528 5.15649099 17.5 3.8125 C20.88894703 4.06667103 22.47870838 4.69481909 25 7 C25.65449079 12.06921639 24.87950669 14.92171703 21.84960938 19.04101562 C21.42486328 19.58435547 21.00011719 20.12769531 20.5625 20.6875 C16.65871341 25.36068622 16.65871341 25.36068622 15 31 C15.89305515 32.96414462 15.89305515 32.96414462 17.3125 34.8125 C21.13449745 40.54549618 22.66621091 46.07140653 22 53 C20.875 54.9375 20.875 54.9375 19 56 C16.0625 56.5 16.0625 56.5 13 56 C9.4402544 52.83578169 8.43260031 49.69595439 7.6875 45.16015625 C6.69686525 42.04753683 4.87139355 39.65239852 3 37 C2.92483154 37.59014893 2.84966309 38.18029785 2.7722168 38.78833008 C2.42377896 41.46495426 2.05587825 44.13855041 1.6875 46.8125 C1.56955078 47.74126953 1.45160156 48.67003906 1.33007812 49.62695312 C1.20439453 50.51962891 1.07871094 51.41230469 0.94921875 52.33203125 C0.83924561 53.15421143 0.72927246 53.9763916 0.6159668 54.82348633 C-0.10641519 57.37601723 -0.89573673 58.40815592 -3 60 C-8.15361744 60.64420218 -8.15361744 60.64420218 -10.66796875 58.73046875 C-14.79133047 53.37372611 -11.57267525 43.05757024 -10.78027344 36.75537109 C-9.79742841 28.39433929 -9.62624166 20.00857409 -9.51782227 11.59570312 C-9.49260498 10.52384766 -9.4673877 9.45199219 -9.44140625 8.34765625 C-9.42795166 7.38867432 -9.41449707 6.42969238 -9.40063477 5.44165039 C-9 3 -9 3 -7.65991211 1.18530273 C-5.10259972 -0.64081164 -3.05101563 -0.31781413 0 0 Z " fill="#050306" transform="translate(316,206)"/>
<path d="M0 0 C2.42612374 2.42612374 2.29655391 2.97976804 2.3125 6.3125 C1.96597114 22.72930497 0.06404885 41.72997958 -12 54 C-15.28774909 56.68524304 -17.96073984 58.01960868 -22.3125 57.9375 C-25 57 -25 57 -27 54 C-27.125 50.6875 -27.125 50.6875 -26 47 C-24.05477084 45.16330294 -22.05221666 43.72153407 -19.8125 42.26171875 C-17.85873932 41.11629113 -17.85873932 41.11629113 -17 39 C-17.556875 39.05800781 -18.11375 39.11601562 -18.6875 39.17578125 C-24.18627171 39.50087755 -27.74026232 38.74114076 -32.2734375 35.5625 C-36.60445772 31.64302469 -38.67808846 26.52864572 -39.203125 20.7734375 C-39.33391083 14.08156241 -38.84453053 6.69628261 -34.6171875 1.203125 C-33 0 -33 0 -29.4375 0.1875 C-26 1 -26 1 -24 3 C-23.88061523 5.13891602 -23.88061523 5.13891602 -24.05859375 7.75390625 C-24.11466797 8.69041016 -24.17074219 9.62691406 -24.22851562 10.59179688 C-24.29748047 11.57212891 -24.36644531 12.55246094 -24.4375 13.5625 C-24.5657183 15.50100839 -24.68965516 17.43980638 -24.80859375 19.37890625 C-24.86845459 20.2407251 -24.92831543 21.10254395 -24.98999023 21.99047852 C-24.99329346 22.65362061 -24.99659668 23.3167627 -25 24 C-23.90645094 25.29524348 -23.90645094 25.29524348 -21.25 25.375 C-17.89715557 25.26484418 -17.89715557 25.26484418 -15.39453125 23.046875 C-12.2577304 19.05551339 -11.94926815 15.81812489 -11.4375 10.875 C-10.54940228 2.59924496 -10.54940228 2.59924496 -8.10546875 -0.06640625 C-5.0865233 -1.40504811 -3.12475111 -0.88308183 0 0 Z " fill="#080507" transform="translate(388,211)"/>
<path d="M0 0 C3.375 0.875 3.375 0.875 5.375 2.875 C5.64624023 4.97875977 5.64624023 4.97875977 5.68359375 7.56640625 C5.72129883 8.98469727 5.72129883 8.98469727 5.75976562 10.43164062 C5.79444116 12.408146 5.82578756 14.38471308 5.85351562 16.36132812 C6.02908132 22.7031035 6.98346459 27.98835529 9.375 33.875 C12.76148598 34.18286236 14.70860498 34.33195658 17.5625 32.375 C22.60012572 25.42655074 22.80917224 18.3788527 22.90234375 10.14648438 C23.07052231 4.26518129 23.07052231 4.26518129 24.71679688 2.15551758 C26.375 0.875 26.375 0.875 29.3125 0.4375 C33.12882017 0.9826886 34.04269902 1.85293341 36.375 4.875 C38.28313862 16.53417773 35.47740996 28.81366479 29.125 38.67578125 C25.68846843 42.99445821 21.61126355 46.12957882 16.375 47.875 C11.4361364 48.39353818 7.52145166 48.42699525 3 46.25 C-4.74958829 39.23846774 -7.45021634 29.72029828 -8.015625 19.5 C-8.06708762 17.60451462 -8.10352962 15.7085623 -8.125 13.8125 C-8.14336914 12.895896 -8.16173828 11.97929199 -8.18066406 11.03491211 C-8.1209642 4.59747599 -8.1209642 4.59747599 -5.8203125 1.24609375 C-3.625 -0.125 -3.625 -0.125 0 0 Z " fill="#090607" transform="translate(159.625,218.125)"/>
<path d="M0 0 C3.06899759 0.91416949 4.03179216 1.39323959 5.9375 3.875 C6.33190918 6.10031128 6.33190918 6.10031128 6.35742188 8.72607422 C6.37333374 9.71074677 6.38924561 10.69541931 6.40563965 11.70993042 C6.40584106 12.77245026 6.40604248 13.83497009 6.40625 14.9296875 C6.41386353 16.02338654 6.42147705 17.11708557 6.42932129 18.243927 C6.44013292 20.55891638 6.4429711 22.87395458 6.43847656 25.18896484 C6.43750557 28.72967097 6.47909021 32.26820141 6.5234375 35.80859375 C6.52864536 38.05728714 6.53133268 40.30598808 6.53125 42.5546875 C6.54764526 43.61315887 6.56404053 44.67163025 6.58093262 45.76217651 C6.51197226 53.10608189 6.51197226 53.10608189 3.56445312 57.05126953 C0.9375 58.875 0.9375 58.875 -1.6875 59.375 C-4.53344807 58.77585304 -5.30492864 58.16147313 -7.0625 55.875 C-7.45018005 53.52233887 -7.45018005 53.52233887 -7.46655273 50.71679688 C-7.47923691 49.66560669 -7.49192108 48.6144165 -7.50498962 47.53137207 C-7.50205399 46.39695679 -7.49911835 45.2625415 -7.49609375 44.09375 C-7.5013356 42.92871948 -7.50657745 41.76368896 -7.51197815 40.56335449 C-7.51840527 38.09872231 -7.51705249 35.63405948 -7.50854492 33.16943359 C-7.50003321 29.38974653 -7.52879226 25.61156897 -7.56054688 21.83203125 C-7.56215882 19.44010462 -7.56158149 17.04817531 -7.55859375 14.65625 C-7.56982773 13.52183472 -7.58106171 12.38741943 -7.59263611 11.21862793 C-7.58325516 10.16743774 -7.57387421 9.11624756 -7.56420898 8.03320312 C-7.56404282 7.10737427 -7.56387665 6.18154541 -7.56370544 5.22766113 C-7.0625 2.875 -7.0625 2.875 -5.22254944 1.0447998 C-3.0625 -0.125 -3.0625 -0.125 0 0 Z " fill="#080406" transform="translate(406.0625,191.125)"/>
<path d="M0 0 C0.99 0.66 1.98 1.32 3 2 C3.32592773 3.9543457 3.32592773 3.9543457 3.24609375 6.36328125 C3.2188623 7.26127441 3.19163086 8.15926758 3.16357422 9.08447266 C2.88064713 14.12733127 2.50230901 19.15597672 2.0625 24.1875 C1.28266279 32.99451259 1.28266279 32.99451259 0.78515625 41.8203125 C0.73230469 43.13773437 0.67945313 44.45515625 0.625 45.8125 C0.59664062 46.93269531 0.56828125 48.05289063 0.5390625 49.20703125 C-0.12903502 52.66855101 -1.22349401 53.88360705 -4 56 C-7.14714218 56.44959174 -9.0437869 56.6968536 -11.66699219 54.78515625 C-13.45791658 52.3867608 -13.34287934 50.98011281 -13.265625 48 C-13.23791016 46.93007813 -13.21019531 45.86015625 -13.18164062 44.7578125 C-12.85496119 37.99941213 -12.45695213 31.25287765 -11.93798828 24.50634766 C-11.81163305 22.82172066 -11.69359888 21.13645082 -11.58349609 19.45068359 C-11.42243449 16.98629849 -11.23746674 14.52475621 -11.046875 12.0625 C-11.0018988 11.31145996 -10.95692261 10.56041992 -10.9105835 9.78662109 C-10.61911502 6.3640523 -10.21736474 4.28770529 -8.12597656 1.51953125 C-5.25359669 -0.53348808 -3.45620809 -0.44121805 0 0 Z " fill="#080609" transform="translate(217,215)"/>
<path d="M0 0 C0.99 0.66 1.98 1.32 3 2 C4.53652245 9.92770845 2.52469253 19.28198262 1.828125 27.32348633 C1.62459086 29.6922617 1.43308517 32.0618174 1.2421875 34.43164062 C1.11270704 35.95839524 0.98252304 37.48509038 0.8515625 39.01171875 C0.79626373 39.70980148 0.74096497 40.40788422 0.68399048 41.12712097 C-0.31998805 52.31998805 -0.31998805 52.31998805 -4 56 C-9.22825386 56.55619722 -9.22825386 56.55619722 -11.67480469 54.79296875 C-13.45211574 52.38829439 -13.34281825 50.9777559 -13.265625 48 C-13.23791016 46.93007813 -13.21019531 45.86015625 -13.18164062 44.7578125 C-12.85496119 37.99941213 -12.45695213 31.25287765 -11.93798828 24.50634766 C-11.81163305 22.82172066 -11.69359888 21.13645082 -11.58349609 19.45068359 C-11.42243449 16.98629849 -11.23746674 14.52475621 -11.046875 12.0625 C-11.0018988 11.31145996 -10.95692261 10.56041992 -10.9105835 9.78662109 C-10.61911502 6.3640523 -10.21736474 4.28770529 -8.12597656 1.51953125 C-5.25359669 -0.53348808 -3.45620809 -0.44121805 0 0 Z " fill="#080406" transform="translate(241,215)"/>
<path d="M0 0 C2.375 1.5625 2.375 1.5625 4 4 C4.47429537 8.98010142 4.26881984 12.46236032 2 17 C1.443125 16.690625 0.88625 16.38125 0.3125 16.0625 C-2.22648005 14.8959416 -4.20646106 14.20951542 -7 14 C-9.40383995 14.99034226 -9.40383995 14.99034226 -11 17 C-11.66743877 19.41344667 -11.66743877 19.41344667 -11 22 C-9.06102121 24.67398476 -9.06102121 24.67398476 -7 27 C-7 27.66 -7 28.32 -7 29 C-9.79870027 30.39935013 -11.90498792 30.25265405 -15 30 C-17.58705941 28.15210042 -18.79110087 25.90443138 -20 23 C-20.52878527 16.00461155 -18.93413849 10.47264387 -14.7421875 4.88671875 C-10.53497913 0.33048188 -6.23596286 -2.21723124 0 0 Z " fill="#EFCDC6" transform="translate(128,230)"/>
<path d="M0 0 C10 0 10 0 13.625 1.3125 C16.86279095 4.97631608 16.72306385 7.66130288 16.46875 12.4296875 C16 15 16 15 14.125 17.625 C8.67624058 21.15066786 8.74345864 20 0 20 C0 13.4 0 6.8 0 0 Z " fill="#FCD9DC" transform="translate(250,300)"/>
<path d="M0 0 C2.875 1.3125 2.875 1.3125 5 4 C6.02407466 9.3681333 5.93373993 13.55694738 2.9375 18.1875 C-0.73396914 20.45287458 -2.75368609 20.61764566 -7 20 C-10.1850357 18.23984869 -10.83296972 17.50109084 -12 14 C-12.57279236 6.8973747 -12.57279236 6.8973747 -10.125 3.0625 C-6.77678373 -0.18723932 -4.62344486 -0.45327891 0 0 Z " fill="#F3D9DD" transform="translate(233,300)"/>
<path d="M0 0 C2.8125 0.875 2.8125 0.875 4.8125 2.875 C5.2792512 6.45342586 5.21478636 8.24743328 3.25 11.3125 C0.8125 12.875 0.8125 12.875 -2.8125 12.8125 C-6.1875 11.875 -6.1875 11.875 -8.1875 8.875 C-8.625 6.4375 -8.625 6.4375 -8.1875 3.875 C-5.4432202 0.80786375 -4.16206734 -0.16321833 0 0 Z " fill="#100A0B" transform="translate(406.1875,258.125)"/>
<path d="M0 0 C10 0 10 0 13.625 1.3125 C16.86279095 4.97631608 16.72306385 7.66130288 16.46875 12.4296875 C16 15 16 15 14.125 17.625 C8.67624058 21.15066786 8.74345864 20 0 20 C0 13.4 0 6.8 0 0 Z M3 2 C3 7.28 3 12.56 3 18 C9.46670776 18.59264919 9.46670776 18.59264919 12.4375 16.5625 C14.7451962 12.77787823 14.79344759 9.31897247 14 5 C12.5771736 2.74536751 12.5771736 2.74536751 10 2 C7.69 2 5.38 2 3 2 Z " fill="#2D2327" transform="translate(250,300)"/>
<path d="M0 0 C2.875 1.3125 2.875 1.3125 5 4 C6.02407466 9.3681333 5.93373993 13.55694738 2.9375 18.1875 C-0.73396914 20.45287458 -2.75368609 20.61764566 -7 20 C-10.1850357 18.23984869 -10.83296972 17.50109084 -12 14 C-12.57279236 6.8973747 -12.57279236 6.8973747 -10.125 3.0625 C-6.77678373 -0.18723932 -4.62344486 -0.45327891 0 0 Z M-8.375 4.0625 C-10.40553614 7.73308456 -10.60190112 9.86192982 -10 14 C-8.60314994 16.6469872 -8.60314994 16.6469872 -6 18 C-2.37350049 18.08916154 -2.37350049 18.08916154 1 17 C3.06520632 13.90219052 3.29477024 13.0459519 3.3125 9.5 C3.32925781 8.7265625 3.34601563 7.953125 3.36328125 7.15625 C2.91172561 4.4760488 2.15237987 3.61681117 0 2 C-3.90616378 1.33512106 -5.34960269 1.43518128 -8.375 4.0625 Z " fill="#291315" transform="translate(233,300)"/>
<path d="M0 0 C3.96 0 7.92 0 12 0 C12 0.66 12 1.32 12 2 C9.03 2 6.06 2 3 2 C3 4.31 3 6.62 3 9 C5.64 9 8.28 9 11 9 C11 9.66 11 10.32 11 11 C8.36 11 5.72 11 3 11 C3 13.31 3 15.62 3 18 C5.97 18 8.94 18 12 18 C12 18.66 12 19.32 12 20 C8.04 20 4.08 20 0 20 C0 13.4 0 6.8 0 0 Z " fill="#050C17" transform="translate(278,300)"/>
<path d="M0 0 C1.875 1.375 1.875 1.375 3 3 C3 3.66 3 4.32 3 5 C2.34 5 1.68 5 1 5 C0.67 4.34 0.34 3.68 0 3 C-1.65 3 -3.3 3 -5 3 C-5.33 4.32 -5.66 5.64 -6 7 C-5.43410156 7.27714844 -4.86820312 7.55429687 -4.28515625 7.83984375 C-3.55167969 8.20207031 -2.81820313 8.56429688 -2.0625 8.9375 C-0.96615234 9.47697266 -0.96615234 9.47697266 0.15234375 10.02734375 C2 11 2 11 3 12 C3.25 14.9375 3.25 14.9375 3 18 C-0.69486103 20.46324069 -2.63293092 20.38991688 -7 20 C-8.9375 18.6875 -8.9375 18.6875 -10 17 C-10 16.01 -10 15.02 -10 14 C-9.34 14 -8.68 14 -8 14 C-7.01 15.485 -7.01 15.485 -6 17 C-2.91634129 17.2502157 -2.91634129 17.2502157 0 17 C0 15.68 0 14.36 0 13 C-2.64 12.01 -5.28 11.02 -8 10 C-9.32850242 3.59903382 -9.32850242 3.59903382 -7.9375 1.0625 C-5.13281671 -0.47555213 -3.14485925 -0.39310741 0 0 Z " fill="#25151B" transform="translate(310,300)"/>
<path d="M0 0 C2.375 2 2.375 2 4 4 C3.01 4 2.02 4 1 4 C0.67 3.67 0.34 3.34 0 3 C-2.9157691 2.58297878 -2.9157691 2.58297878 -6 3 C-8.57271448 5.22968588 -8.95311909 6.62495274 -9.375 10 C-8.95311909 13.37504726 -8.57271448 14.77031412 -6 17 C-1.91834173 17.51020728 -0.47042703 17.31361802 3 15 C3 15.99 3 16.98 3 18 C-0.7205836 20.48038907 -2.59796571 20.46337203 -7 20 C-9.36497439 18.13291495 -10.66030715 16.67938569 -12 14 C-12.5811138 6.91041162 -12.5811138 6.91041162 -10.125 3.0625 C-6.78674495 -0.17757107 -4.6118515 -0.46118515 0 0 Z " fill="#361E1F" transform="translate(207,300)"/>
<path d="M0 0 C3.96 0 7.92 0 12 0 C12 0.66 12 1.32 12 2 C9.03 2 6.06 2 3 2 C3 4.31 3 6.62 3 9 C2.67 9 2.34 9 2 9 C1.67 12.63 1.34 16.26 1 20 C0.67 20 0.34 20 0 20 C0 13.4 0 6.8 0 0 Z " fill="#58372A" transform="translate(278,300)"/>
<path d="M0 0 C4.75 0.75 4.75 0.75 7 3 C7.68270306 8.00119681 8.07563254 12.55461877 5 16.6875 C4.34 17.120625 3.68 17.55375 3 18 C2.34 17.34 1.68 16.68 1 16 C1.48597656 15.59652344 1.97195312 15.19304687 2.47265625 14.77734375 C4.83171604 12.0321463 4.46774587 9.65490968 4.37109375 6.1640625 C3.84833352 3.11554496 2.46503067 1.77174079 0 0 Z " fill="#2D1B20" transform="translate(231,301)"/>
<path d="M0 0 C-0.47304682 4.25742137 -2.8863822 6.25705098 -6 9 C-6.99 9.33 -7.98 9.66 -9 10 C-8.69121904 6.39755548 -8.00552268 5.00654002 -5.625 2.1875 C-3 0 -3 0 0 0 Z " fill="#E7C6C5" transform="translate(277,229)"/>
<path d="M0 0 C0.33 0 0.66 0 1 0 C1.1875 2.875 1.1875 2.875 1 6 C-2.69486103 8.46324069 -4.63293092 8.38991688 -9 8 C-10.9375 6.6875 -10.9375 6.6875 -12 5 C-12 4.01 -12 3.02 -12 2 C-11.34 2 -10.68 2 -10 2 C-9.01 3.485 -9.01 3.485 -8 5 C-4.91634129 5.2502157 -4.91634129 5.2502157 -2 5 C-1.34 3.35 -0.68 1.7 0 0 Z " fill="#1B1322" transform="translate(312,312)"/>
<path d="M0 0 C0.33 0 0.66 0 1 0 C1.2852991 3.37920934 1.42276957 6.62868367 1 10 C-1.0625 12.1875 -1.0625 12.1875 -4 13 C-7.8125 12.6875 -7.8125 12.6875 -11 12 C-11 11.67 -11 11.34 -11 11 C-8.03 10.34 -5.06 9.68 -2 9 C-1.34 6.03 -0.68 3.06 0 0 Z " fill="#391F19" transform="translate(264,307)"/>
<path d="M0 0 C0.66 0.66 1.32 1.32 2 2 C-0.71182212 4.60334924 -1.89133813 4.99456691 -5.75 5.1875 C-6.8225 5.125625 -7.895 5.06375 -9 5 C-9.33 4.34 -9.66 3.68 -10 3 C-8.72125 2.87625 -7.4425 2.7525 -6.125 2.625 C-2.65209064 2.30957601 -2.65209064 2.30957601 0 0 Z " fill="#19121A" transform="translate(209,315)"/>
<path d="M0 0 C-2 2 -2 2 -4.4375 2.9375 C-6.97065221 3.9878314 -8.23145796 4.95221448 -10 7 C-9.6875 4.625 -9.6875 4.625 -9 2 C-5.5647952 -0.29013653 -4.014669 -0.17842973 0 0 Z " fill="#13111D" transform="translate(233,300)"/>
<path d="M0 0 C2.75 -0.25 2.75 -0.25 6 0 C8.375 2 8.375 2 10 4 C6.38970831 4 3.44193324 3.03907418 0 2 C0 1.34 0 0.68 0 0 Z " fill="#1C1216" transform="translate(201,300)"/>
<path d="M0 0 C0.556875 0.226875 1.11375 0.45375 1.6875 0.6875 C0.5428125 1.3371875 0.5428125 1.3371875 -0.625 2 C-2.89343768 3.42436785 -4.5324723 4.72010097 -6.3125 6.6875 C-6.9725 6.3575 -7.6325 6.0275 -8.3125 5.6875 C-7.3125 2.6875 -7.3125 2.6875 -5 0.9375 C-2.3125 -0.3125 -2.3125 -0.3125 0 0 Z " fill="#FFF5FB" transform="translate(366.3125,363.3125)"/>
</svg>
